<?xml version="1.0" encoding="UTF-8" standalone="no"?>
<!--Generator: Apple Native CoreSVG 175.5-->

<svg
   version="1.1"
   width="240"
   height="240"
   id="svg2464"
   sodipodi:docname="bookmind-large.svg"
   inkscape:version="1.2.1 (9c6d41e, 2022-07-14)"
   inkscape:export-filename="bookmind.pdf"
   inkscape:export-xdpi="120"
   inkscape:export-ydpi="120"
   xmlns:inkscape="http://www.inkscape.org/namespaces/inkscape"
   xmlns:sodipodi="http://sodipodi.sourceforge.net/DTD/sodipodi-0.dtd"
   xmlns="http://www.w3.org/2000/svg"
   xmlns:svg="http://www.w3.org/2000/svg">
  <defs
     id="defs2468">
    <rect
       x="21"
       y="-104"
       width="150"
       height="55"
       id="rect463" />
    <rect
       x="6"
       y="-84"
       width="230"
       height="55"
       id="rect362" />
    <inkscape:perspective
       sodipodi:type="inkscape:persp3d"
       inkscape:vp_x="0 : 224 : 1"
       inkscape:vp_y="0 : 1000 : 0"
       inkscape:vp_z="32 : 224 : 1"
       inkscape:persp3d-origin="16 : 218.66667 : 1"
       id="perspective6457" />
  </defs>
  <sodipodi:namedview
     id="namedview2466"
     pagecolor="#f9f0e3"
     bordercolor="#000000"
     borderopacity="0.25"
     inkscape:showpageshadow="2"
     inkscape:pageopacity="1"
     inkscape:pagecheckerboard="0"
     inkscape:deskcolor="#d1d1d1"
     showgrid="true"
     inkscape:zoom="1.8053893"
     inkscape:cx="107.1791"
     inkscape:cy="143.45936"
     inkscape:window-width="1422"
     inkscape:window-height="992"
     inkscape:window-x="233"
     inkscape:window-y="38"
     inkscape:window-maximized="0"
     inkscape:current-layer="svg2464">
    <inkscape:grid
       type="xygrid"
       id="grid10655"
       originx="16"
       originy="16"
       spacingx="1"
       spacingy="1" />
  </sodipodi:namedview>
  <g
     id="g2462">
    <path
       id="path3058"
       style="fill:#221105;fill-opacity:1;stroke:#221105;stroke-width:8.79344;stroke-dasharray:none;stroke-opacity:1"
       d="M 126,6 C 82.32357,6.0045 46.917393,45.498644 46.911746,94.21965 c 0.0614,2.64521 0.229534,5.28601 0.503753,7.91437 -0.255975,1.16299 -0.406245,2.33792 -0.406245,3.53966 v 1.23435 l -15.193655,21.76448 c -4.286416,10.86719 4.002046,15.56561 15.193655,17.60763 v 25.03187 c 0,23.45133 11.848469,33.50584 33.279787,34.4347 66.559589,0 83.849489,0.98022 99.839379,-46.46962 16.6399,-18.58783 24.90409,-45.14302 24.95984,-65.05744 C 205.08326,45.498646 169.67644,6.004538 126,6 Z"
       sodipodi:nodetypes="cccscccscccc" />
    <path
       id="rect14297"
       style="fill:none;stroke:#f9f0e3;stroke-width:7.99296;stroke-linecap:round;stroke-linejoin:round;stroke-dasharray:none;stroke-opacity:1;paint-order:stroke fill markers"
       d="m 98.12352,49.618071 a 25.152091,9.7991813 0 0 0 -25.152093,9.799183 v 58.795086 h 3.365093 a 25.152091,9.7991813 0 0 1 21.787,-4.8996 25.152091,9.7991813 0 0 1 21.78701,4.8996 h 3.36507 V 59.417254 A 25.152091,9.7991813 0 0 0 98.12352,49.618071 Z" />
    <path
       id="rect14297-8"
       style="fill:none;stroke:#f9f0e3;stroke-width:7.99296;stroke-linecap:round;stroke-linejoin:round;stroke-dasharray:none;stroke-opacity:1;paint-order:stroke fill markers"
       d="m 148.4277,49.618071 a 25.152091,9.7991813 0 0 0 -25.1521,9.799183 v 58.795086 h 3.36508 a 25.152091,9.7991813 0 0 1 21.78702,-4.8996 25.152091,9.7991813 0 0 1 21.78701,4.8996 h 3.36508 V 59.417254 A 25.152091,9.7991813 0 0 0 148.4277,49.618071 Z" />
    <text
       xml:space="preserve"
       id="text360"
       style="white-space:pre;shape-inside:url(#rect362);display:inline;fill:#221105;stroke:#f9f0e3;stroke-linecap:round;stroke-linejoin:round;paint-order:stroke fill markers" />
    <text
       xml:space="preserve"
       id="text461"
       style="font-style:normal;font-variant:normal;font-weight:normal;font-stretch:normal;font-size:26.6667px;font-family:'Times New Roman';-inkscape-font-specification:'Times New Roman, Normal';font-variant-ligatures:normal;font-variant-caps:normal;font-variant-numeric:normal;font-variant-east-asian:normal;white-space:pre;shape-inside:url(#rect463);display:inline;fill:#221105;stroke:#f9f0e3;stroke-linecap:round;stroke-linejoin:round;paint-order:stroke fill markers" />
  </g>
  <text
     xml:space="preserve"
     style="font-size:32px;font-family:'Times New Roman';-inkscape-font-specification:'Times New Roman, Normal';fill:#221105;stroke:#f9f0e3;stroke-linecap:round;stroke-linejoin:round;paint-order:stroke fill markers"
     x="50.296875"
     y="245.0625"
     id="text476"><tspan
       sodipodi:role="line"
       id="tspan474"
       x="50.296875"
       y="245.0625">Bookmind</tspan></text>
</svg>
